<svg width="32" height="32" viewBox="0 0 32 32" fill="none" xmlns="http://www.w3.org/2000/svg">
<path d="M10.2226 14.2238H7.55591C5.34657 14.2238 3.55591 12.4331 3.55591 10.2238V7.55713C3.55591 5.3478 5.34657 3.55713 7.55591 3.55713H10.2226C12.4319 3.55713 14.2226 5.3478 14.2226 7.55713V10.2238C14.2226 12.4331 12.4319 14.2238 10.2226 14.2238Z" stroke="black" stroke-width="1.5" stroke-miterlimit="10" stroke-linecap="round" stroke-linejoin="round"/>
<path d="M24.4439 14.2238H21.7772C19.5679 14.2238 17.7772 12.4331 17.7772 10.2238V7.55713C17.7772 5.3478 19.5679 3.55713 21.7772 3.55713H24.4439C26.6532 3.55713 28.4439 5.3478 28.4439 7.55713V10.2238C28.4439 12.4331 26.6532 14.2238 24.4439 14.2238Z" stroke="black" stroke-width="1.5" stroke-miterlimit="10" stroke-linecap="round" stroke-linejoin="round"/>
<path d="M10.2226 28.4425H7.55591C5.34657 28.4425 3.55591 26.6518 3.55591 24.4425V21.7758C3.55591 19.5665 5.34657 17.7758 7.55591 17.7758H10.2226C12.4319 17.7758 14.2226 19.5665 14.2226 21.7758V24.4425C14.2226 26.6518 12.4319 28.4425 10.2226 28.4425Z" stroke="black" stroke-width="1.5" stroke-miterlimit="10" stroke-linecap="round" stroke-linejoin="round"/>
<path d="M24.4439 28.4425H21.7772C19.5679 28.4425 17.7772 26.6518 17.7772 24.4425V21.7758C17.7772 19.5665 19.5679 17.7758 21.7772 17.7758H24.4439C26.6532 17.7758 28.4439 19.5665 28.4439 21.7758V24.4425C28.4439 26.6518 26.6532 28.4425 24.4439 28.4425Z" stroke="black" stroke-width="1.5" stroke-miterlimit="10" stroke-linecap="round" stroke-linejoin="round"/>
</svg>
