<svg width="32" height="32" stroke="currentColor" viewBox="0 0 32 32" fill="none" xmlns="http://www.w3.org/2000/svg">
<path stroke-linecap="round" stroke-linejoin="round" stroke-width="2" d="M7.11058 10.6678C7.11058 12.6317 8.70265 14.2238 10.6666 14.2238C12.6305 14.2238 14.2226 12.6317 14.2226 10.6678C14.2226 8.70389 12.6305 7.11182 10.6666 7.11182C8.70265 7.11182 7.11058 8.70389 7.11058 10.6678ZM7.11058 10.6678H3.55591M17.7772 10.6665H28.4439M24.8892 21.7758C24.8892 23.7397 23.2972 25.3318 21.3332 25.3318C19.3693 25.3318 17.7772 23.7397 17.7772 21.7758C17.7772 19.8119 19.3693 18.2198 21.3332 18.2198C23.2972 18.2198 24.8892 19.8119 24.8892 21.7758ZM24.8892 21.7758H28.4439M14.2226 21.7745H3.55591"/>
</svg>